# xmcd CD database file
#
# Track frame offsets:
#	180
#	20907
#	42048
#	70716
#	95246
#	116536
#	128865
#	155995
#	174392
#	193960
#	215766
#	227529
#	244430
#	259741
#
# Disc length: 3802 seconds
#
# Revision: 0
# Processed by: cddbd v1.5.2PL0 Copyright (c) Steve Scherf et al.
# Submitted via: Kat CD Ripper 
#
DISCID=d40ed80e
DTITLE=Hurricane Blues Band - Can't Lose
DYEAR=1998
DGENRE=Blues
TTITLE0=Can't Lose
TTITLE1=Pretty Woman
TTITLE2=Lonely Hours
TTITLE3=She's Into Something
TTITLE4=Tell Me Mama
TTITLE5=S.F. Bay Blues
TTITLE6=Hoochie Coochie Man
TTITLE7=Stray Cat Strut
TTITLE8=Yesterday Is Here
TTITLE9=St. James Infirmary
TTITLE10=Keep On Churnin'
TTITLE11=Nasty Boogie Woogie
TTITLE12=Lovin' Machine
TTITLE13=Blues With A Feeling
EXTD=YEAR: 1998
EXTT0=
EXTT1=
EXTT2=
EXTT3=
EXTT4=
EXTT5=
EXTT6=
EXTT7=
EXTT8=
EXTT9=
EXTT10=
EXTT11=
EXTT12=
EXTT13=
PLAYORDER=
